# xmcd CD database file
#
# Track frame offsets:
#	150
#	29549
#	64522
#	93650
#	122728
#	135284
#	155461
#	181157
#
# Disc length: 3012 seconds
#
# Revision: 0
# Processed by: cddbd v1.5.2PL0 Copyright (c) Steve Scherf et al.
# Submitted via: CDex 1.51
#
DISCID=610bc208
DTITLE=Wolfgang Haffner - Acoustic Shapes
DYEAR=2008
DGENRE=Jazz
TTITLE0=Silent Way
TTITLE1=Shapes
TTITLE2=Faithless
TTITLE3=Star
TTITLE4=Crusin
TTITLE5=Some Other Time
TTITLE6=New Life
TTITLE7=24 Hours
EXTD=YEAR: 2008
EXTT0=
EXTT1=
EXTT2=
EXTT3=
EXTT4=
EXTT5=
EXTT6=
EXTT7=
PLAYORDER=
